0
SECTION
2
ENTITIES
0
LINE
8
Edge_Cuts
10
3.0000
20
0.0000
11
82.0000
21
0.0000
0
LINE
8
Edge_Cuts
10
85.0000
20
3.0000
11
85.0000
21
53.0000
0
LINE
8
Edge_Cuts
10
82.0000
20
56.0000
11
3.0000
21
56.0000
0
LINE
8
Edge_Cuts
10
0.0000
20
53.0000
11
0.0000
21
3.0000
0
ARC
8
Edge_Cuts
10
82.0000
20
3.0000
40
3.0000
50
270.0000
51
360.0000
0
ARC
8
Edge_Cuts
10
82.0000
20
53.0000
40
3.0000
50
0.0000
51
90.0000
0
ARC
8
Edge_Cuts
10
3.0000
20
53.0000
40
3.0000
50
90.0000
51
180.0000
0
ARC
8
Edge_Cuts
10
3.0000
20
3.0000
40
3.0000
50
180.0000
51
270.0000
0
CIRCLE
8
Holes
10
3.5000
20
3.5000
40
1.3750
0
CIRCLE
8
Holes
10
61.5000
20
3.5000
40
1.3750
0
CIRCLE
8
Holes
10
3.5000
20
52.5000
40
1.3750
0
CIRCLE
8
Holes
10
61.5000
20
52.5000
40
1.3750
0
CIRCLE
8
REF_Header_DOGRULA
10
8.3660
20
51.6410
40
0.5000
0
CIRCLE
8
REF_Header_DOGRULA
10
8.3660
20
54.1810
40
0.5000
0
CIRCLE
8
REF_Header_DOGRULA
10
10.9060
20
51.6410
40
0.5000
0
CIRCLE
8
REF_Header_DOGRULA
10
10.9060
20
54.1810
40
0.5000
0
CIRCLE
8
REF_Header_DOGRULA
10
13.4460
20
51.6410
40
0.5000
0
CIRCLE
8
REF_Header_DOGRULA
10
13.4460
20
54.1810
40
0.5000
0
CIRCLE
8
REF_Header_DOGRULA
10
15.9860
20
51.6410
40
0.5000
0
CIRCLE
8
REF_Header_DOGRULA
10
15.9860
20
54.1810
40
0.5000
0
CIRCLE
8
REF_Header_DOGRULA
10
18.5260
20
51.6410
40
0.5000
0
CIRCLE
8
REF_Header_DOGRULA
10
18.5260
20
54.1810
40
0.5000
0
CIRCLE
8
REF_Header_DOGRULA
10
21.0660
20
51.6410
40
0.5000
0
CIRCLE
8
REF_Header_DOGRULA
10
21.0660
20
54.1810
40
0.5000
0
CIRCLE
8
REF_Header_DOGRULA
10
23.6060
20
51.6410
40
0.5000
0
CIRCLE
8
REF_Header_DOGRULA
10
23.6060
20
54.1810
40
0.5000
0
CIRCLE
8
REF_Header_DOGRULA
10
26.1460
20
51.6410
40
0.5000
0
CIRCLE
8
REF_Header_DOGRULA
10
26.1460
20
54.1810
40
0.5000
0
CIRCLE
8
REF_Header_DOGRULA
10
28.6860
20
51.6410
40
0.5000
0
CIRCLE
8
REF_Header_DOGRULA
10
28.6860
20
54.1810
40
0.5000
0
CIRCLE
8
REF_Header_DOGRULA
10
31.2260
20
51.6410
40
0.5000
0
CIRCLE
8
REF_Header_DOGRULA
10
31.2260
20
54.1810
40
0.5000
0
CIRCLE
8
REF_Header_DOGRULA
10
33.7660
20
51.6410
40
0.5000
0
CIRCLE
8
REF_Header_DOGRULA
10
33.7660
20
54.1810
40
0.5000
0
CIRCLE
8
REF_Header_DOGRULA
10
36.3060
20
51.6410
40
0.5000
0
CIRCLE
8
REF_Header_DOGRULA
10
36.3060
20
54.1810
40
0.5000
0
CIRCLE
8
REF_Header_DOGRULA
10
38.8460
20
51.6410
40
0.5000
0
CIRCLE
8
REF_Header_DOGRULA
10
38.8460
20
54.1810
40
0.5000
0
CIRCLE
8
REF_Header_DOGRULA
10
41.3860
20
51.6410
40
0.5000
0
CIRCLE
8
REF_Header_DOGRULA
10
41.3860
20
54.1810
40
0.5000
0
CIRCLE
8
REF_Header_DOGRULA
10
43.9260
20
51.6410
40
0.5000
0
CIRCLE
8
REF_Header_DOGRULA
10
43.9260
20
54.1810
40
0.5000
0
CIRCLE
8
REF_Header_DOGRULA
10
46.4660
20
51.6410
40
0.5000
0
CIRCLE
8
REF_Header_DOGRULA
10
46.4660
20
54.1810
40
0.5000
0
CIRCLE
8
REF_Header_DOGRULA
10
49.0060
20
51.6410
40
0.5000
0
CIRCLE
8
REF_Header_DOGRULA
10
49.0060
20
54.1810
40
0.5000
0
CIRCLE
8
REF_Header_DOGRULA
10
51.5460
20
51.6410
40
0.5000
0
CIRCLE
8
REF_Header_DOGRULA
10
51.5460
20
54.1810
40
0.5000
0
CIRCLE
8
REF_Header_DOGRULA
10
54.0860
20
51.6410
40
0.5000
0
CIRCLE
8
REF_Header_DOGRULA
10
54.0860
20
54.1810
40
0.5000
0
CIRCLE
8
REF_Header_DOGRULA
10
56.6260
20
51.6410
40
0.5000
0
CIRCLE
8
REF_Header_DOGRULA
10
56.6260
20
54.1810
40
0.5000
0
ENDSEC
0
EOF
